<?xml version="1.0" encoding="iso-8859-1"?>
<!-- Generator: Adobe Illustrator 22.0.0, SVG Export Plug-In . SVG Version: 6.00 Build 0)  -->
<svg version="1.1" id="Layer_1" xmlns="http://www.w3.org/2000/svg" xmlns:xlink="http://www.w3.org/1999/xlink" x="0px" y="0px"
	 viewBox="-49 141 512 512" style="enable-background:new -49 141 512 512;" xml:space="preserve" width="66px">
<g>
	<g>
		<path fill="#e9ba5f" d="M191.27,227.46c-12.75,18.32-24.92,40.65-37.2,68.27c-0.55,1.23-1.15,2.62-1.8,4.15c-1.37,3.2-4.5,5.26-7.98,5.26
			c-1.17,0-2.31-0.23-3.4-0.7c-2.13-0.91-3.77-2.59-4.64-4.74c-0.86-2.15-0.83-4.5,0.08-6.63c0.68-1.61,1.32-3.08,1.9-4.38
			c12.74-28.65,25.43-51.92,38.82-71.13c1.32-1.9,3.3-3.18,5.58-3.58c0.52-0.1,1.04-0.14,1.55-0.14c1.75,0,3.46,0.53,4.93,1.56
			c1.9,1.32,3.18,3.3,3.58,5.58C193.1,223.26,192.6,225.56,191.27,227.46z"/>
	</g>
	<g>
		<path fill="#e9ba5f" d="M141.12,327.92l-0.32,0.86c-1.26,3.37-4.52,5.64-8.12,5.64c-1.03,0-2.05-0.19-3.03-0.55c-2.17-0.81-3.89-2.42-4.85-4.53
			c-0.96-2.1-1.05-4.46-0.23-6.63l0.24-0.65c1.27-3.53,4.61-5.73,8.16-5.73c0.98,0,1.97,0.17,2.93,0.51
			C140.4,318.47,142.74,323.44,141.12,327.92z"/>
	</g>
	<g>
		<path fill="#e9ba5f" d="M338.89,334.21c-7.2-22.28-16.15-45.22-25.98-66.91c-9.83-21.68-20.53-42.12-31.26-59.37
			C254.88,164.85,229.77,143,207,143s-47.89,21.85-74.66,64.94c-21.44,34.51-42.84,81.72-57.23,126.27
			c-15.44,47.81-19.76,80.86-12.49,95.58c5.26,10.64,18.94,18.8,41.83,24.95c15.6,4.19,35.6,7.36,57.83,9.17l2.29,0.18l-0.51,2.3
			v0.01c-0.02,0.14-0.05,0.28-0.07,0.42l-0.7,5.86c-4.85,40.51-10.35,86.42,0.76,128.52l0.04,0.24l2.85,20.74
			c2.32,16.97,14.64,28.82,29.96,28.82H218c15.41,0,28.02-12.19,29.99-28.99l2.47-20.9c8.79-33.43,5.68-67.69,2.68-100.82
			c-0.98-10.72-1.98-21.8-2.6-32.87l-0.01-0.13c-0.02-0.36-0.06-0.72-0.13-1.06l-0.41-2.19l2.21-0.18
			c22.13-1.81,42.03-4.98,57.54-9.17c22.77-6.15,36.39-14.29,41.64-24.9C358.65,415.07,354.33,382.02,338.89,334.21z M230.77,619.99
			c-0.77,6.59-5.09,13.68-12.77,13.68h-21.09c-7.53,0-11.85-6.96-12.8-13.85l-1.57-11.49h49.6L230.77,619.99z M235.42,589.4
			l-0.33,1.6h-19.18v-28.83c0-2.32-0.9-4.49-2.53-6.13c-1.64-1.64-3.82-2.54-6.13-2.54c-4.78,0-8.67,3.89-8.67,8.67L198.57,591
			h-19.19l-0.34-1.58c-7.85-36.75-3.12-76.27,1.04-111.15l0.21-1.76h53.46l0.13,1.85c0.58,7.91,1.29,15.77,1.98,23.37l0.01,0.13
			C238.64,532.4,241.26,561.24,235.42,589.4z M183.22,459.17l9.42-45.98c1.02-4.99,5.09-21.26,14.6-21.26s13.59,16.27,14.61,21.26
			l9.42,45.98H183.22z M335.83,422.11c-4.44,9.01-33.76,20.57-87.62,24.68l-1.76,0.14l-7.62-37.22
			c-4.57-22.32-16.09-35.12-31.59-35.12s-27.02,12.8-31.58,35.12l-7.63,37.25l-1.76-0.13c-54.16-4.08-83.64-15.67-88.1-24.72
			c-2.98-6.02-3.49-30.17,13.44-82.57c13.98-43.29,34.71-89.06,55.46-122.45c22.4-36.07,44.25-56.75,59.93-56.75
			s37.52,20.68,59.93,56.74c20.74,33.38,41.48,79.16,55.46,122.46C339.32,391.93,338.81,416.09,335.83,422.11z"/>
	</g>
	<g>
		<path fill="#e9ba5f" d="M215.92,530.5v0.78c0,4.78-3.89,8.67-8.67,8.67s-8.67-3.89-8.67-8.67v-0.78c0-4.78,3.89-8.67,8.67-8.67
			S215.92,525.72,215.92,530.5z"/>
	</g>
</g>
</svg>
